<svg xmlns="http://www.w3.org/2000/svg" version="1.1" xmlns:xlink="http://www.w3.org/1999/xlink" xmlns:svgjs="http://svgjs.dev/svgjs" width="100%" height="100%" viewBox="0 0 1000 600"><rect width="1000" height="600" x="0" y="0" fill="#1e2019"/><g><rect width="333.3333333333333" height="333.3333333333333" rx="13.333333333333334" ry="13.333333333333334" y="271.0616665794159" fill="#394032" transform="matrix(0.502331931562179,0,0,0.502331931562179,0,80.11507953013262)" x="248.83956909179688"/><path d="M349.69574394102176 512.7283327667947Q319.5016808029936 512.7283327667947 300.69460366881526 492.8653195871465Q281.8589877225973 473.0023064074984 281.8589877225973 437.7854123504787Q281.8589877225973 402.568518293459 300.5804484206564 382.6484274897315Q319.30190911871546 362.72833668600396 348.58273027147254 362.72833668600396L348.58273027147254 362.72833668600396Q373.8681177386683 362.72833668600396 389.62154198459604 373.63016288517866Q405.3749662305238 384.50345027231356 409.284783479966 404.36646345196164L409.284783479966 404.36646345196164Q409.6843268485221 406.87787891145734 407.1729113890264 406.87787891145734L407.1729113890264 406.87787891145734L394.24482953503133 406.87787891145734Q392.4468843765287 406.87787891145734 391.84756932369453 404.88016206867667L391.84756932369453 404.88016206867667Q383.20030927565807 377.16897557810444 348.58273027147254 377.0833591419852L348.58273027147254 377.0833591419852Q327.83501391859306 377.0833591419852 314.079306515446 392.38016239527747Q300.3235991122989 407.67696564856965 300.3235991122989 437.6712571023198Q300.3235991122989 467.66554855606995 314.2220005756446 482.9908906214019Q328.1204020389903 498.28769387469407 349.69574394102176 498.28769387469407L349.69574394102176 498.28769387469407Q384.1991676970484 498.28769387469407 392.84642774508484 470.57650738412184L392.84642774508484 470.57650738412184Q393.4457427979191 468.57879054134116 395.2436879564217 468.493174105222L395.2436879564217 468.493174105222L408.20030862245653 468.493174105222Q410.28364190135636 468.493174105222 410.28364190135636 470.2911192637246L410.28364190135636 470.2911192637246Q410.28364190135636 479.2237674321583 404.37610780913343 487.75687223203585L404.37610780913343 487.75687223203585Q387.2242817732592 512.7283327667947 349.69574394102176 512.7283327667947L349.69574394102176 512.7283327667947ZM431.1740523144345 472.4029913546642L431.1740523144345 472.4029913546642Q431.1740523144345 470.57650738412184 433.2859244053741 470.57650738412184L433.2859244053741 470.57650738412184L446.21400625936917 470.57650738412184Q448.01195141787184 470.57650738412184 448.72542171886494 472.60276303894227L448.72542171886494 472.60276303894227Q457.34414295486164 498.28769387469407 492.67519226004026 498.28769387469407L492.67519226004026 498.28769387469407Q511.13980364974185 498.28769387469407 520.9000773673275 491.6952282935178Q530.688889896953 485.13130152438123 530.688889896953 475.39956661883525Q530.688889896953 465.6678317132893 524.5245064963724 459.70321999698695Q518.360123095792 453.73860828068456 505.20373074547916 450.0285627155204L505.20373074547916 450.0285627155204L469.1877499513472 439.7831291932594Q434.28478282676446 429.7660061673162 434.28478282676446 401.7694315563467L434.28478282676446 401.7694315563467Q434.28478282676446 384.50345027231356 448.98227102722245 373.63016288517866Q463.6797592276804 362.72833668600396 488.36583164204194 362.72833668600396Q513.0233652443636 362.72833668600396 528.2345520615366 373.3162359527417Q543.4457388787096 383.9041352194794 547.3555561281519 402.36874660918096L547.3555561281519 402.36874660918096Q547.755099496708 404.88016206867667 545.2436840372122 404.88016206867667L545.2436840372122 404.88016206867667L532.2870633711775 404.88016206867667Q530.4891182126748 404.88016206867667 529.8041867237214 402.7682899777371L529.8041867237214 402.7682899777371Q521.1569266756851 377.0833591419852 488.765375010598 377.0833591419852L488.765375010598 377.0833591419852Q471.6991654108429 377.0833591419852 462.22427981365445 383.64728591112186Q452.74939421646604 390.21121268025837 452.74939421646604 400.1141804580427Q452.74939421646604 409.9886094237873 458.91377761704643 415.69637183173216Q465.0781610176269 421.43267305171673 478.43432505221784 425.34249030115893L478.43432505221784 425.34249030115893L514.4503058463499 435.6735402595391Q549.1535012866545 445.519430413244 549.1535012866545 473.6872378964518L549.1535012866545 473.6872378964518Q549.1535012866545 491.152990864763 534.0564697176403 501.9406618157788Q518.9594381486263 512.7283327667947 492.67519226004026 512.7283327667947Q466.3909463714542 512.7283327667947 450.7231385616456 502.19751112413627L450.7231385616456 502.19751112413627Q442.90350406276116 496.9749085208668 437.024508782578 488.8984247136248Q431.1740523144345 480.82194090638285 431.1740523144345 472.4029913546642Z " fill="#587b7f" transform="matrix(0.502331931562179,0,0,0.502331931562179,0,80.11507953013262)"/><path d="M733.3429912554749 512.7283327667947Q703.1489281174466 512.7283327667947 684.3418509832684 492.8653195871465Q665.5062350370504 473.0023064074984 665.5062350370504 437.7854123504787Q665.5062350370504 402.568518293459 684.2276957351095 382.6484274897315Q702.9491564331686 362.72833668600396 732.2299775859257 362.72833668600396L732.2299775859257 362.72833668600396Q757.5153650531213 362.72833668600396 773.2687892990491 373.63016288517866Q789.0222135449769 384.50345027231356 792.932030794419 404.36646345196164L792.932030794419 404.36646345196164Q793.3315741629754 406.87787891145734 790.8201587034796 406.87787891145734L790.8201587034796 406.87787891145734L777.8920768494845 406.87787891145734Q776.0941316909818 406.87787891145734 775.4948166381475 404.88016206867667L775.4948166381475 404.88016206867667Q766.8475565901113 377.16897557810444 732.2299775859257 377.0833591419852L732.2299775859257 377.0833591419852Q711.4822612330461 377.0833591419852 697.7265538298991 392.38016239527747Q683.9708464267519 407.67696564856965 683.9708464267519 437.6712571023198Q683.9708464267519 467.66554855606995 697.8692478900977 482.9908906214019Q711.7676493534434 498.28769387469407 733.3429912554749 498.28769387469407L733.3429912554749 498.28769387469407Q767.8464150115014 498.28769387469407 776.493675059538 470.57650738412184L776.493675059538 470.57650738412184Q777.0929901123723 468.57879054134116 778.8909352708747 468.493174105222L778.8909352708747 468.493174105222L791.8475559369097 468.493174105222Q793.9308892158094 468.493174105222 793.9308892158094 470.2911192637246L793.9308892158094 470.2911192637246Q793.9308892158094 479.2237674321583 788.0233551235865 487.75687223203585L788.0233551235865 487.75687223203585Q770.8715290877124 512.7283327667947 733.3429912554749 512.7283327667947L733.3429912554749 512.7283327667947ZM810.7117106951673 507.6198854116839L810.7117106951673 507.6198854116839L865.1923028790009 371.97491178687466Q867.6751795264568 365.8390671983339 874.4103391678318 365.75345076221475L874.4103391678318 365.75345076221475L880.6318001924917 365.75345076221475Q887.4525762699857 365.75345076221475 889.8498364813227 371.97491178687466L889.8498364813227 371.97491178687466L944.3304286651562 507.6198854116839Q944.6443555975932 508.2192004645181 944.6443555975932 508.5045885849153L944.6443555975932 508.5045885849153Q944.6443555975932 509.6176022544646 942.6466387548126 509.6176022544646L942.6466387548126 509.6176022544646L927.8920729302749 509.6176022544646Q925.8658172754547 509.6176022544646 924.7813424179451 507.6198854116839L924.7813424179451 507.6198854116839L910.4263199619638 472.60276303894227L844.6158193983597 472.60276303894227L830.2607969423784 507.6198854116839Q829.261938520988 509.6176022544646 827.1500664300484 509.6176022544646L827.1500664300484 509.6176022544646L812.395500605511 509.6176022544646Q810.5119390108891 509.6176022544646 810.5119390108891 508.5045885849153L810.5119390108891 508.5045885849153Q810.3977837627303 508.2192004645181 810.7117106951673 507.6198854116839ZM877.5210696801616 389.4121259431461L849.8384220016292 458.247740582961L905.3178726068531 458.247740582961L877.5210696801616 389.4121259431461ZM971.2425284186161 507.6198854116839L971.2425284186161 507.6198854116839L971.2425284186161 367.83678404111464Q971.2425284186161 365.8390671983339 973.2402452613969 365.75345076221475L973.2402452613969 365.75345076221475L1030.8315679575603 365.75345076221475Q1056.116955424756 365.75345076221475 1070.1580509483003 377.3687472623825Q1084.1991464718446 389.01258257459 1084.1991464718446 409.9886094237873L1084.1991464718446 409.9886094237873Q1084.1991464718446 425.02856336872196 1073.4114755208288 435.98746719197607Q1062.623804569813 446.91783220319047 1043.160334758721 450.0285627155204L1043.160334758721 450.0285627155204Q1048.8966359787057 451.4269645054669 1053.4913847171015 455.0228548224722Q1058.1146722675367 458.6472839515171 1060.1694667343968 461.3013934712115Q1062.224261201257 463.9555029909058 1065.734535082143 469.57764896273153L1065.734535082143 469.57764896273153L1090.4206074965045 507.1061867949689Q1090.9343061132195 507.90527353208114 1090.9343061132195 508.7614378932729Q1090.9343061132195 509.6176022544646 1088.708278774121 509.6176022544646L1088.708278774121 509.6176022544646L1071.8703796706839 509.6176022544646Q1070.2436673844195 509.6176022544646 1068.845265594473 507.6198854116839L1068.845265594473 507.6198854116839L1044.1591931801115 469.57764896273153Q1034.3418418384465 454.1381516492407 1015.3635318320298 454.1381516492407L1015.3635318320298 454.1381516492407L989.678600996278 454.1381516492407L989.678600996278 507.6198854116839Q989.678600996278 509.6176022544646 987.6808841534973 509.6176022544646L987.6808841534973 509.6176022544646L973.2402452613969 509.6176022544646Q971.2425284186161 509.6176022544646 971.2425284186161 507.6198854116839ZM989.678600996278 380.1940896543152L989.678600996278 439.7831291932594L1030.8315679575603 439.7831291932594Q1046.6706086396073 439.7831291932594 1056.2025718608752 432.04911113049417Q1065.734535082143 424.34363187976857 1065.734535082143 409.93153179970784Q1065.734535082143 395.5479705316869 1056.1740330488356 387.871030093001Q1046.5849922034881 380.1940896543152 1030.8315679575603 380.1940896543152L1030.8315679575603 380.1940896543152L989.678600996278 380.1940896543152ZM1169.1877287261434 472.4029913546642L1169.1877287261434 472.4029913546642Q1169.1877287261434 470.57650738412184 1171.299600817083 470.57650738412184L1171.299600817083 470.57650738412184L1184.2276826710781 470.57650738412184Q1186.0256278295806 470.57650738412184 1186.739098130574 472.60276303894227L1186.739098130574 472.60276303894227Q1195.3578193665705 498.28769387469407 1230.688868671749 498.28769387469407L1230.688868671749 498.28769387469407Q1249.1534800614506 498.28769387469407 1258.942292591076 491.6952282935178Q1268.7025663086617 485.13130152438123 1268.7025663086617 475.39956661883525Q1268.7025663086617 465.6678317132893 1262.5381829080814 459.70321999698695Q1256.373799507501 453.73860828068456 1243.217407157188 450.0285627155204L1243.217407157188 450.0285627155204L1207.201426363056 439.7831291932594Q1172.2984592384735 429.7660061673162 1172.2984592384735 401.7694315563467L1172.2984592384735 401.7694315563467Q1172.2984592384735 384.50345027231356 1186.9959474389314 373.63016288517866Q1201.6934356393892 362.72833668600396 1226.3795080537507 362.72833668600396Q1251.065580468112 362.72833668600396 1266.2482284732455 373.3162359527417Q1281.4594152904187 383.9041352194794 1285.3692325398608 402.36874660918096L1285.3692325398608 402.36874660918096Q1285.768775908417 404.88016206867667 1283.2573604489212 404.88016206867667L1283.2573604489212 404.88016206867667L1270.329278594926 404.88016206867667Q1268.5027946243838 404.88016206867667 1267.8178631354303 402.7682899777371L1267.8178631354303 402.7682899777371Q1259.1706030873938 377.0833591419852 1226.779051422307 377.0833591419852L1226.779051422307 377.0833591419852Q1209.7128418225518 377.0833591419852 1200.2379562253634 383.64728591112186Q1190.763070628175 390.21121268025837 1190.763070628175 400.1141804580427Q1190.763070628175 409.9886094237873 1196.9274540287554 415.69637183173216Q1203.0918374293358 421.43267305171673 1216.4480014639266 425.34249030115893L1216.4480014639266 425.34249030115893L1252.4639822580586 435.6735402595391Q1287.1671776983635 445.519430413244 1287.1671776983635 473.6872378964518L1287.1671776983635 473.6872378964518Q1287.1671776983635 491.152990864763 1272.0701461293493 501.9406618157788Q1256.973114560335 512.7283327667947 1230.688868671749 512.7283327667947Q1204.4046227831632 512.7283327667947 1188.7368149733545 502.19751112413627L1188.7368149733545 502.19751112413627Q1180.9171804744701 496.9749085208668 1175.0667240063265 488.8984247136248Q1169.1877287261434 480.82194090638285 1169.1877287261434 472.4029913546642ZM1328.405761095765 492.7511643389876L1328.405761095765 492.7511643389876Q1309.7413780217853 472.80253472322033 1309.7413780217853 437.6712571023198Q1309.7413780217853 402.568518293459 1328.4628387198445 382.6484274897315Q1347.1842994179035 362.72833668600396 1376.52219819474 362.72833668600396Q1405.8600969715765 362.72833668600396 1424.5815576696357 382.6484274897315Q1443.3030183676947 402.568518293459 1443.3030183676947 437.6712571023198Q1443.3030183676947 472.80253472322033 1424.5815576696357 492.7511643389876Q1405.8600969715765 512.7283327667947 1376.52219819474 512.7283327667947Q1347.1842994179035 512.7283327667947 1328.405761095765 492.7511643389876ZM1411.0256219507667 392.38016239527747Q1397.2413757355798 377.0833591419852 1376.52219819474 377.0833591419852Q1355.8030206539001 377.0833591419852 1342.0187744387135 392.38016239527747Q1328.2059894114868 407.67696564856965 1328.2059894114868 437.6712571023198Q1328.2059894114868 467.66554855606995 1342.0187744387135 482.9908906214019Q1355.8030206539001 498.28769387469407 1376.52219819474 498.28769387469407Q1397.2413757355798 498.28769387469407 1411.0256219507667 482.9908906214019Q1424.8384069779931 467.66554855606995 1424.8384069779931 437.6712571023198Q1424.8384069779931 407.67696564856965 1411.0256219507667 392.38016239527747ZM1476.2082686494966 507.6198854116839L1476.2082686494966 507.6198854116839L1476.2082686494966 367.83678404111464Q1476.2082686494966 365.8390671983339 1478.2059854922773 365.75345076221475L1478.2059854922773 365.75345076221475L1492.646624384378 365.75345076221475Q1494.6728800391984 365.75345076221475 1494.6728800391984 367.83678404111464L1494.6728800391984 367.83678404111464L1494.6728800391984 430.56509290442847L1510.112377352689 430.56509290442847Q1528.5769887423908 430.56509290442847 1538.793883452612 415.097056778898L1538.793883452612 415.097056778898L1569.7014168916332 367.83678404111464Q1571.0998186815798 365.8390671983339 1572.7265309678442 365.75345076221475L1572.7265309678442 365.75345076221475L1589.5644300712813 365.75345076221475Q1592.874932267889 365.75345076221475 1591.2767587936646 368.23632740967076L1591.2767587936646 368.23632740967076L1559.370366933253 417.12331243371835Q1547.4411435006484 435.3596133271022 1534.6842945188919 437.6712571023198L1534.6842945188919 437.6712571023198Q1549.438860343429 439.9829008775375 1561.4822390241925 458.247740582961L1561.4822390241925 458.247740582961L1593.2744756364455 507.1061867949689Q1593.7881742531604 507.90527353208114 1593.8452518772401 508.7614378932729Q1593.9023295013194 509.6176022544646 1591.676302162221 509.6176022544646L1591.676302162221 509.6176022544646L1574.8384030587836 509.6176022544646Q1573.2116907725194 509.6176022544646 1571.7276725464537 507.6198854116839L1571.7276725464537 507.6198854116839L1540.9057555435515 460.2454574257417Q1530.6888608333304 444.8059601122509 1512.1100941954699 444.89157654837004L1512.1100941954699 444.89157654837004L1494.6728800391984 444.89157654837004L1494.6728800391984 507.6198854116839Q1494.6728800391984 509.6176022544646 1492.646624384378 509.6176022544646L1492.646624384378 509.6176022544646L1478.2059854922773 509.6176022544646Q1476.2082686494966 509.6176022544646 1476.2082686494966 507.6198854116839ZM1627.0073514673995 492.7511643389876L1627.0073514673995 492.7511643389876Q1608.34296839342 472.80253472322033 1608.34296839342 437.6712571023198Q1608.34296839342 402.568518293459 1627.0358902794392 382.6484274897315Q1645.7573509774984 362.72833668600396 1675.0952497543349 362.72833668600396Q1704.461687343211 362.72833668600396 1723.1546092292306 382.6484274897315Q1741.8760699272898 402.568518293459 1741.8760699272898 437.6712571023198Q1741.8760699272898 472.80253472322033 1723.1546092292306 492.7511643389876Q1704.461687343211 512.7283327667947 1675.0952497543349 512.7283327667947Q1645.7573509774984 512.7283327667947 1627.0073514673995 492.7511643389876ZM1709.6272123224012 392.38016239527747Q1695.8144272951745 377.0833591419852 1675.0952497543349 377.0833591419852Q1654.376072213495 377.0833591419852 1640.5918259983082 392.38016239527747Q1626.8075797831216 407.67696564856965 1626.8075797831216 437.6712571023198Q1626.8075797831216 467.66554855606995 1640.5918259983082 482.9908906214019Q1654.376072213495 498.28769387469407 1675.0952497543349 498.28769387469407Q1695.8144272951745 498.28769387469407 1709.6272123224012 482.9908906214019Q1723.4114585375883 467.66554855606995 1723.4114585375883 437.6712571023198Q1723.4114585375883 407.67696564856965 1709.6272123224012 392.38016239527747Z " fill="#587b7f" transform="matrix(0.502331931562179,0,0,0.502331931562179,0,80.11507953013262)"/></g></svg>